<svg t="1774545638590" class="icon" viewBox="0 0 1024 1024" version="1.1" xmlns="http://www.w3.org/2000/svg" p-id="10729" width="200" height="200"><path d="M1.462857 807.497143c0 62.902857 48.274286 109.714286 109.714286 109.714286h801.645714c62.902857 0 109.714286-46.811429 109.714286-109.714286V370.102857H1.462857v437.394286zM965.485714 776.777143l-111.177143-62.902857V658.285714l111.177143 62.902857v55.588572zM667.062857 604.16h111.177143v-103.862857h49.737143v27.794286H965.485714v46.811428h-137.508571v29.257143h146.285714v46.811429h-137.508571v147.748571h-49.737143V650.971429h-119.954286v-46.811429z m-555.885714 130.194286h219.428571v73.142857h-219.428571v-73.142857zM912.822857 114.102857H111.177143C48.274286 114.102857 1.462857 162.377143 1.462857 223.817143v73.142857h1021.074286v-73.142857c0-62.902857-48.274286-109.714286-109.714286-109.714286z" fill="#ffffff" p-id="10730"></path></svg>