<svg t="1774558943904" class="icon" viewBox="0 0 1024 1024" version="1.1" xmlns="http://www.w3.org/2000/svg" p-id="12690" width="200" height="200"><path d="M516.378 777.152c4.69 0 9.463-0.289 14.27-0.86 46.087-5.53 85.22-37.744 99.663-82.134 1.09-3.32-0.485-6.878-3.663-8.336-3.143-1.465-6.947-0.2-8.725 2.78-0.169 0.282-18.477 29.859-89.762 39.486-10.672 1.432-21.054 2.183-30.897 2.183-49.943-0.032-72.198-18.855-72.4-19.03-2.514-2.234-6.349-2.294-8.925-0.115-2.602 2.176-3.2 5.961-1.426 8.856 21.74 35.245 60.754 57.17 101.863 57.17zM899.66 335.374c-0.629 0-1.201 0.115-1.799 0.115C856.093 154.666 696.502 19.78 505.16 19.78c-196.606 0-359.858 142.335-396.044 330.642-35.182 6.33-61.96 37.254-61.96 74.65v149.676c0 41.95 33.64 75.968 75.175 75.968 23.43 0 44.11-11.063 57.867-28.058 33.242 87.92 100.915 158.81 186.558 196.212 0.204-0.446 1.826-3.598 3.777-6.113 1.348-1.741 2.86-3.168 4.156-3.168 1.342 0 2.576 0.486 3.63 1.231-19.823-14.757-91.417-90.614-106.927-196.473-6.804-46.594 28.095-92.332 68.738-99.897 65.251-12.151 130.16-25.99 195.41-37.912 41.479-7.565 69.824-30.32 87.157-68.203 4.061-8.856 9.928-26.763 12.62-52.586 0.712-3.84 3.863-6.787 7.896-6.787 2.691 0 4.978 1.373 6.494 3.353l1.8-1.118c25.718 37.337 76.718 120.012 84.04 207.187 8.41 99.667 3.72 167.929-72.567 237.765a4.43 4.43 0 0 1-0.317 0.289 6.238 6.238 0 0 0-1.688 4.27c0 2.145 1.145 3.981 2.801 5.099 0.63 0.258 1.26 0.603 1.89 0.862 0.513 0.115 1.001 0.282 1.516 0.282 0.518 0 0.974-0.168 1.43-0.282 1.087-0.572 2.115-1.233 3.174-1.805 77.15-42.503 136.335-113.48 163.685-198.852 11.07 16.448 28.406 28.284 48.541 32.412-32.297 146.89-163.306 238.823-325.615 252.779-9.727-24.128-33.671-41.264-61.792-41.264-36.727 0-66.505 29.087-66.505 64.936 0 35.849 29.774 64.903 66.505 64.903 29.61 0 54.41-19.023 63.019-45.16 187.88-15.271 338.49-126.948 369.932-300.464 27.775-11.61 47.282-38.858 47.282-70.67V412.034c0-42.329-34.558-76.662-77.18-76.662z m-69.31 43.504c-49-132.741-175.98-227.564-325.357-227.564-148.754 0-275.277 94.022-324.735 225.902-2.461-3.012-5.347-5.587-8.181-8.197 27.998-160.708 166.312-282.9 333.082-282.9 165.97 0 303.853 120.989 332.77 280.584-2.857 3.84-5.49 7.848-7.58 12.176zM366.77 818.873h-0.009c-0.03 0.067-0.03 0.078 0.009 0z m0 0z" fill="#ffffff" p-id="12691"></path></svg>