<svg width="287" height="287" viewBox="0 0 287 287" fill="none" xmlns="http://www.w3.org/2000/svg">
<g filter="url(#filter0_d_401_6622)">
<foreignObject x="-10.1688" y="-21.4675" width="307.325" height="307.325"><div xmlns="http://www.w3.org/1999/xhtml" style="backdrop-filter:blur(33.33px);clip-path:url(#bgblur_0_401_6622_clip_path);height:100%;width:100%"></div></foreignObject><g filter="url(#filter1_iii_401_6622)" data-figma-bg-blur-radius="66.6623">
<path d="M230.494 132.195C230.494 180.244 191.542 219.195 143.494 219.195C95.4448 219.195 56.4935 180.244 56.4935 132.195C56.4935 84.146 95.4448 45.1948 143.494 45.1948C191.542 45.1948 230.494 84.146 230.494 132.195Z" fill="#101F2D" fill-opacity="0.9"/>
<path d="M143.494 49.1948C189.333 49.1948 226.494 86.3552 226.494 132.195C226.494 178.034 189.333 215.195 143.494 215.195C97.6539 215.195 60.4935 178.034 60.4935 132.195C60.4935 86.3552 97.6539 49.1948 143.494 49.1948Z" stroke="#96CBFF" stroke-width="8"/>
<path d="M143.494 49.1948C189.333 49.1948 226.494 86.3552 226.494 132.195C226.494 178.034 189.333 215.195 143.494 215.195C97.6539 215.195 60.4935 178.034 60.4935 132.195C60.4935 86.3552 97.6539 49.1948 143.494 49.1948Z" stroke="#E2E2E6" stroke-opacity="0.6" stroke-width="8"/>
</g>
<path d="M157.874 117.814C165.817 125.756 165.817 138.633 157.874 146.576C149.932 154.518 137.055 154.518 129.113 146.576C121.17 138.633 121.17 125.756 129.113 117.814M143.494 109.597V129.935V109.597Z" stroke="#96CBFF" stroke-width="5" stroke-linecap="square"/>
<path d="M157.874 117.814C165.817 125.756 165.817 138.633 157.874 146.576C149.932 154.518 137.055 154.518 129.113 146.576C121.17 138.633 121.17 125.756 129.113 117.814M143.494 109.597V129.935V109.597Z" stroke="#E2E2E6" stroke-opacity="0.6" stroke-width="5" stroke-linecap="square"/>
</g>
<defs>
<filter id="filter0_d_401_6622" x="2.28882e-05" y="-1.14441e-05" width="286.987" height="286.987" filterUnits="userSpaceOnUse" color-interpolation-filters="sRGB">
<feFlood flood-opacity="0" result="BackgroundImageFix"/>
<feColorMatrix in="SourceAlpha" type="matrix" values="0 0 0 0 0 0 0 0 0 0 0 0 0 0 0 0 0 0 127 0" result="hardAlpha"/>
<feOffset dy="11.2987"/>
<feGaussianBlur stdDeviation="28.2468"/>
<feComposite in2="hardAlpha" operator="out"/>
<feColorMatrix type="matrix" values="0 0 0 0 0.0627451 0 0 0 0 0.121569 0 0 0 0 0.176471 0 0 0 0.1 0"/>
<feBlend mode="normal" in2="BackgroundImageFix" result="effect1_dropShadow_401_6622"/>
<feBlend mode="normal" in="SourceGraphic" in2="effect1_dropShadow_401_6622" result="shape"/>
</filter>
<filter id="filter1_iii_401_6622" x="-10.1688" y="-21.4675" width="307.325" height="307.325" filterUnits="userSpaceOnUse" color-interpolation-filters="sRGB">
<feFlood flood-opacity="0" result="BackgroundImageFix"/>
<feBlend mode="normal" in="SourceGraphic" in2="BackgroundImageFix" result="shape"/>
<feColorMatrix in="SourceAlpha" type="matrix" values="0 0 0 0 0 0 0 0 0 0 0 0 0 0 0 0 0 0 127 0" result="hardAlpha"/>
<feOffset dx="-33.8961" dy="-11.2987"/>
<feGaussianBlur stdDeviation="28.2468"/>
<feComposite in2="hardAlpha" operator="arithmetic" k2="-1" k3="1"/>
<feColorMatrix type="matrix" values="0 0 0 0 0.211765 0 0 0 0 0.541176 0 0 0 0 0.960784 0 0 0 0.1 0"/>
<feBlend mode="normal" in2="shape" result="effect1_innerShadow_401_6622"/>
<feColorMatrix in="SourceAlpha" type="matrix" values="0 0 0 0 0 0 0 0 0 0 0 0 0 0 0 0 0 0 127 0" result="hardAlpha"/>
<feOffset dx="33.8961" dy="5.64935"/>
<feGaussianBlur stdDeviation="22.5974"/>
<feComposite in2="hardAlpha" operator="arithmetic" k2="-1" k3="1"/>
<feColorMatrix type="matrix" values="0 0 0 0 0.192157 0 0 0 0 0.870588 0 0 0 0 0.870588 0 0 0 0.1 0"/>
<feBlend mode="normal" in2="effect1_innerShadow_401_6622" result="effect2_innerShadow_401_6622"/>
<feColorMatrix in="SourceAlpha" type="matrix" values="0 0 0 0 0 0 0 0 0 0 0 0 0 0 0 0 0 0 127 0" result="hardAlpha"/>
<feOffset/>
<feGaussianBlur stdDeviation="22.5974"/>
<feComposite in2="hardAlpha" operator="arithmetic" k2="-1" k3="1"/>
<feColorMatrix type="matrix" values="0 0 0 0 0.804167 0 0 0 0 0.804167 0 0 0 0 0.804167 0 0 0 0.2 0"/>
<feBlend mode="normal" in2="effect2_innerShadow_401_6622" result="effect3_innerShadow_401_6622"/>
</filter>
<clipPath id="bgblur_0_401_6622_clip_path" transform="translate(10.1688 21.4675)"><path d="M230.494 132.195C230.494 180.244 191.542 219.195 143.494 219.195C95.4448 219.195 56.4935 180.244 56.4935 132.195C56.4935 84.146 95.4448 45.1948 143.494 45.1948C191.542 45.1948 230.494 84.146 230.494 132.195Z"/>
</clipPath></defs>
</svg>
