<svg width="30" height="30" viewBox="0 0 30 30" fill="none" xmlns="http://www.w3.org/2000/svg">
<path d="M6.29394 15.8813C6.26495 15.5915 6.25011 15.2975 6.25011 15C6.25011 14.7025 6.26495 14.4085 6.29394 14.1187L4.00732 11.5401L6.50732 7.20994L9.88382 7.90089C10.3592 7.55767 10.8705 7.26103 11.4109 7.01765L12.5001 3.75H17.5001L18.5893 7.01765C19.1297 7.26103 19.641 7.55767 20.1164 7.90089L23.4929 7.20994L25.9929 11.5401L23.7063 14.1187C23.7353 14.4085 23.7501 14.7025 23.7501 15C23.7501 15.2975 23.7353 15.5915 23.7063 15.8813L25.9929 18.4599L23.4929 22.7901L20.1164 22.0991C19.641 22.4423 19.1297 22.739 18.5893 22.9823L17.5001 26.25H12.5001L11.4109 22.9823C10.8705 22.739 10.3592 22.4423 9.88382 22.0991L6.50732 22.7901L4.00732 18.4599L6.29394 15.8813Z" stroke="#E2E2E6" stroke-width="2.5" stroke-linecap="square"/>
<path d="M15 16.25C15.6904 16.25 16.25 15.6904 16.25 15C16.25 14.3096 15.6904 13.75 15 13.75C14.3096 13.75 13.75 14.3096 13.75 15C13.75 15.6904 14.3096 16.25 15 16.25Z" stroke="#E2E2E6" stroke-width="2.5" stroke-linecap="square"/>
</svg>
