<svg t="1774699290015" class="icon" viewBox="0 0 1024 1024" version="1.1" xmlns="http://www.w3.org/2000/svg" p-id="3458" width="256" height="256"><path d="M294.125714 490.569143h45.147429l0.164571 0.164571h52.388572v34.505143h-51.913143a47.981714 47.981714 0 0 1-45.787429-34.669714z m97.700572 154.605714v-93.019428h-97.700572a48.182857 48.182857 0 0 0 45.787429 34.669714h11.282286v59.318857l-45.787429 167.497143-24.027429-11.593143v45.312l47.561143 24.502857h367.597715v-40.777143H341.211429l50.614857-185.910857z m3.382857 166.710857h40.466286l11.117714-40.777143 0.493714-1.627428h78.354286V811.885714h40.630857v-76.909714H456.777143l0.64-2.889143 6.290286-23.058286 0.329142-0.969142h102.381715v-34.505143h-58.514286c1.426286-4.022857 2.724571-8.228571 3.2-12.726857H475.977143a18.395429 18.395429 0 0 1-17.243429 12.726857h-49.810285v34.505143h14.665142l-0.64 2.907428-27.739428 100.918857z m171.062857-225.389714v-54.820571h-40.777143v20.150857h-55.478857v34.834285h55.460571v22.089143h-71.588571v-78.848h30.171429c29.988571 0 54.802286-22.893714 58.020571-52.388571h-39.003429a19.748571 19.748571 0 0 1-18.870857 14.025143h-70.765714v151.716571h152.832v-56.758857z m70.290286-96.402286h-49.974857v34.486857h49.974857c5.485714 0 10.788571-0.950857 16.932571-2.889142l2.889143-1.133715v139.940572c0 16.274286-1.115429 33.371429-3.693714 53.686857l-0.969143 7.734857-24.502857-53.028571v-118.180572h-40.155429v127.030857l49.828572 107.867429 0.146285 0.969143-0.146285 0.64-0.182858 0.969143c-2.413714 7.734857-4.827429 15.963429-8.045714 23.698285h42.88a468.882286 468.882286 0 0 0 25.142857-151.387428V477.513143h-42.550857a18.834286 18.834286 0 0 1-17.572571 12.580571zM963.84 249.216v187.355429c0 14.665143-11.940571 26.587429-26.605714 26.587428h-33.042286v480.914286c0 14.683429-11.940571 26.624-26.605714 26.624H135.643429a26.624 26.624 0 0 1-26.605715-26.605714v-480.914286H76.16a26.624 26.624 0 0 1-26.605714-26.605714V249.216c0-14.665143 11.922286-26.587429 26.605714-26.587429H332.982857a121.033143 121.033143 0 0 1 14.025143-148.333714c0.64-0.804571 1.28-1.609143 2.084571-2.413714 43.209143-43.044571 111.085714-46.445714 158.336-10.642286A119.954286 119.954286 0 0 1 580.132571 36.571429h0.164572c32.237714 0 62.537143 12.580571 85.284571 35.291428a121.472 121.472 0 0 1 16.274286 150.601143h255.378286a26.88 26.88 0 0 1 26.605714 26.752z m-577.334857-44.16l6.601143 6.601143 10.971428 10.971428H610.925714l16.932572-17.097142c26.605714-26.770286 26.441143-69.650286 0.310857-95.926858a66.834286 66.834286 0 0 0-47.542857-19.675428h-0.182857c-18.048 0-34.980571 7.094857-47.725715 19.84l-6.107428 6.125714v0.164572a26.660571 26.660571 0 0 1-37.577143 0l-6.436572-6.454858c-25.636571-25.782857-67.401143-26.276571-93.988571-1.609142a15.872 15.872 0 0 1-1.609143 1.773714 67.291429 67.291429 0 0 0-0.493714 95.268571z m464.475428 258.102857h-48.530285c-2.249143 0-4.498286-0.310857-6.601143-0.804571L512.731429 389.814857a27.995429 27.995429 0 0 1-5.174858 0.475429c-2.084571 0-4.022857-0.329143-6.125714-0.804572L213.211429 462.354286a29.476571 29.476571 0 0 1-6.454858 0.804571H162.56v454.326857h688.749714V463.158857h-0.329143zM910.628571 275.821714H102.601143v134.144h100.443428l296.96-75.136a25.6 25.6 0 0 1 13.056 0l292.626286 74.971429h104.777143v-133.979429h0.182857z" fill="#ffffff" p-id="3459"></path></svg>